<?xml version="1.0" standalone="no"?>
<!DOCTYPE svg PUBLIC "-//W3C//DTD SVG 20010904//EN"
 "http://www.w3.org/TR/2001/REC-SVG-20010904/DTD/svg10.dtd">
<svg version="1.0" xmlns="http://www.w3.org/2000/svg"
 width="857.000000pt" height="857.000000pt" viewBox="0 0 857.000000 857.000000"
 preserveAspectRatio="xMidYMid meet">
<metadata>
Created by potrace 1.11, written by Peter Selinger 2001-2013
</metadata>
<g transform="translate(0.000000,857.000000) scale(0.100000,-0.100000)"
fill="#000000" stroke="none">
<path d="M6385 7883 c-303 -61 -491 -172 -664 -393 -84 -107 -151 -272 -175
-430 -30 -201 10 -353 122 -468 56 -57 159 -93 187 -66 8 9 15 16 15 17 -2 28
-41 138 -76 215 -9 18 -20 59 -26 90 -10 56 -10 59 36 160 58 128 100 203 131
235 40 39 254 139 328 153 60 10 155 12 209 2 52 -9 186 -53 197 -63 2 -3 -26
-2 -65 2 -38 5 -104 8 -146 8 -66 0 -81 -3 -99 -22 -28 -28 -27 -69 3 -131 37
-78 65 -109 95 -109 33 0 82 -55 84 -93 5 -88 -3 -177 -19 -223 -8 -21 -8 -70
-2 -182 2 -27 15 -81 28 -120 34 -95 34 -251 1 -291 -6 -8 -9 -14 -5 -14 3 0
1 -11 -4 -24 -5 -14 -12 -58 -16 -98 -3 -40 -14 -98 -25 -129 -12 -38 -16 -72
-13 -110 8 -80 -23 -135 -96 -171 -30 -15 -66 -30 -80 -32 -165 -33 -371 -101
-420 -140 -8 -7 -47 -22 -87 -34 -48 -15 -90 -37 -125 -65 -163 -132 -312
-231 -450 -299 -35 -18 -65 -35 -68 -38 -3 -4 -44 -26 -92 -49 -64 -31 -102
-43 -146 -46 -32 -2 -94 -13 -138 -23 -88 -22 -106 -25 -281 -47 -21 -2 -81
-7 -133 -11 -52 -4 -108 -8 -125 -10 -125 -12 -164 -17 -195 -24 -41 -11 -98
-21 -200 -35 -79 -12 -189 -14 -221 -5 -17 5 -59 12 -92 15 -34 4 -64 8 -67
10 -21 12 -334 27 -354 17 -5 -3 -22 -6 -37 -7 -15 -2 -54 -20 -87 -42 -33
-22 -88 -47 -123 -57 -89 -24 -170 -56 -194 -76 -11 -10 -40 -28 -65 -41 -38
-20 -202 -126 -235 -152 -5 -4 -29 -21 -53 -38 -23 -17 -39 -36 -35 -41 3 -6
2 -8 -4 -5 -6 4 -19 0 -29 -8 -18 -15 -18 -15 1 -8 11 3 -21 -21 -70 -54 -102
-67 -179 -137 -190 -170 -3 -13 -12 -29 -18 -35 -28 -30 -65 -85 -72 -108 -4
-14 -11 -29 -15 -35 -10 -13 -38 -102 -45 -140 -2 -16 -7 -41 -10 -55 -3 -14
-8 -70 -12 -125 -3 -55 -10 -103 -15 -106 -5 -3 -7 -21 -5 -40 6 -39 16 -108
22 -159 7 -54 14 -178 8 -150 -9 49 -20 40 -18 -17 5 -128 -93 -303 -210 -377
-16 -11 -39 -31 -50 -45 -51 -65 -126 -138 -195 -189 -41 -31 -106 -79 -145
-108 -72 -54 -172 -107 -307 -164 -43 -17 -81 -36 -84 -41 -8 -13 -103 -81
-138 -99 -15 -8 -78 -67 -140 -131 -95 -99 -114 -125 -124 -166 -12 -44 -48
-100 -129 -199 -70 -85 -93 -118 -110 -155 -9 -21 -24 -41 -33 -44 -24 -8 -89
-74 -108 -110 -30 -58 -41 -126 -37 -224 6 -143 57 -286 130 -364 l36 -38 46
33 c25 18 70 60 101 93 49 53 92 116 271 391 76 119 346 404 411 436 149 72
230 108 244 108 9 0 34 9 56 20 37 19 160 56 218 66 15 3 34 7 42 9 8 2 29 7
45 10 34 5 52 10 110 25 22 6 47 12 56 14 52 13 167 52 294 101 80 31 155 58
165 61 11 2 30 6 43 9 24 6 155 31 202 39 111 18 182 44 339 123 176 88 259
142 331 216 33 34 89 87 125 117 36 30 67 57 70 60 45 49 242 170 276 170 8 0
43 12 77 26 34 15 84 32 112 39 59 16 261 14 291 -3 11 -6 31 -13 45 -15 25
-4 29 -6 114 -38 47 -18 54 -18 100 -4 88 26 205 37 450 40 214 3 316 9 380
21 11 2 33 7 49 10 16 2 32 7 36 9 3 2 51 7 106 10 54 3 119 8 144 10 25 2 77
7 116 10 40 3 80 7 90 9 11 2 44 7 75 10 31 4 67 9 80 11 13 3 41 7 64 10 22
4 56 9 75 11 71 11 328 65 425 89 55 14 111 28 124 31 14 3 28 7 33 10 4 3 16
7 25 9 10 2 56 16 103 31 152 47 181 54 244 50 71 -4 130 -26 145 -54 10 -18
5 -61 -8 -63 -31 -3 -56 -13 -126 -48 -44 -22 -106 -44 -137 -50 -32 -6 -77
-19 -100 -29 -107 -49 -462 -151 -576 -167 -20 -3 -47 -8 -58 -10 -12 -3 -50
-7 -85 -10 -88 -8 -108 -13 -141 -37 -91 -64 -138 -272 -84 -376 30 -58 97
-73 168 -36 15 8 64 16 110 19 91 6 122 10 165 19 15 4 37 8 48 11 11 2 83 20
160 39 77 19 151 37 165 39 37 7 91 16 120 21 14 2 85 29 157 60 73 31 186 77
250 102 65 26 129 54 143 64 69 48 424 161 475 151 11 -3 61 28 82 51 82 89
112 270 63 383 -20 48 -53 83 -96 105 -16 8 -49 29 -74 46 -25 17 -79 49 -120
70 -104 55 -144 83 -170 121 l-23 33 19 43 c10 23 74 124 141 225 127 190 174
278 198 366 18 67 13 217 -10 276 -9 25 -19 57 -21 73 -2 15 -7 39 -10 55 -4
15 -8 223 -10 462 -1 239 -5 451 -7 470 -9 65 -28 173 -31 179 -8 12 -18 108
-17 146 2 47 45 141 71 155 10 5 24 16 32 23 7 7 27 18 43 24 29 11 50 16 124
28 19 3 38 8 43 11 8 5 47 5 234 0 112 -3 169 10 223 53 43 34 102 109 109
139 2 9 5 46 6 82 1 54 -4 76 -28 125 -36 72 -139 180 -216 226 -30 18 -69 45
-86 60 -18 14 -74 50 -125 78 -100 56 -214 127 -259 161 -37 28 -69 97 -74
158 -9 99 -81 213 -232 367 -44 44 -90 97 -104 117 -16 24 -44 47 -76 62 -46
22 -63 24 -147 21 -52 -2 -128 1 -168 6 -41 5 -92 12 -114 14 -22 3 -51 7 -65
10 -35 7 -68 13 -120 20 -24 4 -48 9 -53 12 -11 6 -284 12 -312 6z"/>
</g>
</svg>
